<?xml version="1.0" encoding="UTF-8" standalone="no"?>
<!-- Created with Inkscape (http://www.inkscape.org/) -->

<svg
   xmlns:dc="http://purl.org/dc/elements/1.1/"
   xmlns:cc="http://creativecommons.org/ns#"
   xmlns:rdf="http://www.w3.org/1999/02/22-rdf-syntax-ns#"
   xmlns:svg="http://www.w3.org/2000/svg"
   xmlns="http://www.w3.org/2000/svg"
   xmlns:sodipodi="http://sodipodi.sourceforge.net/DTD/sodipodi-0.dtd"
   xmlns:inkscape="http://www.inkscape.org/namespaces/inkscape"
   width="2000"
   height="2000"
   viewBox="0 0 529.16668 529.16665"
   version="1.1"
   id="svg8"
   inkscape:version="0.92.5 (2060ec1f9f, 2020-04-08)"
   sodipodi:docname="logo.svg">
  <defs
     id="defs2" />
  <sodipodi:namedview
     id="base"
     pagecolor="#ffffff"
     bordercolor="#666666"
     borderopacity="1.0"
     inkscape:pageopacity="0.0"
     inkscape:pageshadow="2"
     inkscape:zoom="0.35"
     inkscape:cx="1272.2243"
     inkscape:cy="1055.223"
     inkscape:document-units="px"
     inkscape:current-layer="layer1"
     showgrid="false"
     units="px"
     inkscape:window-width="2560"
     inkscape:window-height="1025"
     inkscape:window-x="0"
     inkscape:window-y="0"
     inkscape:window-maximized="1" />
  <metadata
     id="metadata5">
    <rdf:RDF>
      <cc:Work
         rdf:about="">
        <dc:format>image/svg+xml</dc:format>
        <dc:type
           rdf:resource="http://purl.org/dc/dcmitype/StillImage" />
        <dc:title></dc:title>
      </cc:Work>
    </rdf:RDF>
  </metadata>
  <g
     inkscape:label="Camada 1"
     inkscape:groupmode="layer"
     id="layer1"
     transform="translate(0,232.16666)">
    <path
       style="fill:#ffffff;fill-opacity:1;fill-rule:nonzero;stroke:#ffffff;stroke-width:21.97015381;stroke-linecap:round;stroke-linejoin:round;stroke-miterlimit:4;stroke-dasharray:none;stroke-dashoffset:0;stroke-opacity:1;paint-order:stroke fill markers"
       inkscape:transform-center-x="-70.509543"
       d="m 492.9818,32.86865 c 0,3.477376 -208.52365,120.37615 -211.52862,122.12609 l -54.52712,31.75391 -146.944769,85.57337 -10.056714,4.79884 1.4e-5,-244.252217 c 0,0 -3.01151,-242.513513 -1.4e-5,-244.252193 3.011496,-1.73869 208.517123,120.387429 211.528613,122.126116 3.01149,1.738687 211.52861,118.648708 211.52861,122.126084 z"
       id="path4551"
       inkscape:connector-curvature="0"
       sodipodi:nodetypes="ssccccscs"
       inkscape:transform-center-y="3.7363457e-06" />
    <path
       style="color:#000000;font-style:normal;font-variant:normal;font-weight:normal;font-stretch:normal;font-size:medium;line-height:normal;font-family:sans-serif;font-variant-ligatures:normal;font-variant-position:normal;font-variant-caps:normal;font-variant-numeric:normal;font-variant-alternates:normal;font-feature-settings:normal;text-indent:0;text-align:start;text-decoration:none;text-decoration-line:none;text-decoration-style:solid;text-decoration-color:#000000;letter-spacing:normal;word-spacing:normal;text-transform:none;writing-mode:lr-tb;direction:ltr;text-orientation:mixed;dominant-baseline:auto;baseline-shift:baseline;text-anchor:start;white-space:normal;shape-padding:0;clip-rule:nonzero;display:inline;overflow:visible;visibility:visible;opacity:1;isolation:auto;mix-blend-mode:normal;color-interpolation:sRGB;color-interpolation-filters:linearRGB;solid-color:#000000;solid-opacity:1;vector-effect:none;fill:#673ab7;fill-opacity:1;fill-rule:nonzero;stroke:none;stroke-width:11.66624928;stroke-linecap:round;stroke-linejoin:round;stroke-miterlimit:4;stroke-dasharray:none;stroke-dashoffset:0;stroke-opacity:1;paint-order:stroke fill markers;color-rendering:auto;image-rendering:auto;shape-rendering:auto;text-rendering:auto;enable-background:accumulate"
       d="m 149.6661,-105.93625 c -1.87227,0.0111 -3.65213,0.19918 -5.30549,0.55349 -4.67944,1.00272 -7.61329,3.84825 -10.26382,6.748853 -2.65058,2.900594 -4.74378,5.640587 -5.76123,9.371062 -0.72218,2.648272 -0.6556,6.142755 0.51613,9.189193 1.17169,3.046437 3.03693,5.976061 5.93158,10.232908 2.53818,3.732618 3.47613,6.159516 3.80894,7.362721 0.0944,0.341817 0.0833,0.374199 0.10635,0.526163 -0.48598,1.566471 -14.29107,45.97577 -28.83914,74.123141 -13.643214,26.396786 -47.340485,31.082552 -47.340485,31.082552 -2.925812,0.372529 -3.60029,0.493512 -3.60029,0.493512 l -0.035,12.200271 10.231773,-2.024565 -7.36e-4,-0.08051 c 10.603545,-2.223 37.586768,-10.153222 51.108468,-36.314732 15.73511,-30.44408 29.94037,-76.986143 29.94037,-76.986143 0.0672,-0.219774 0.12133,-0.443011 0.16244,-0.669197 0,0 0.15233,-1.149235 0.10206,-2.064411 -0.0504,-0.91519 -0.21927,-2.04982 -0.59227,-3.398506 -0.74606,-2.697373 -2.29954,-6.246536 -5.40471,-10.812985 -2.74872,-4.042221 -4.20354,-6.590301 -4.69162,-7.85941 -0.48811,-1.269067 -0.42172,-0.928112 -0.14809,-1.931434 -0.0214,0.07901 1.37168,-2.65659 3.11963,-4.569426 1.74794,-1.912893 4.12691,-3.219169 4.09501,-3.212353 0.67032,-0.143604 1.71092,-0.244575 2.89895,-0.254451 1.18803,-0.0097 2.52265,0.07317 3.78163,0.296152 2.5179,0.44621 4.67635,1.47336 5.56499,2.361982 1.89332,1.89335 3.62305,4.193489 6.67625,6.288835 3.05323,2.095319 7.24901,3.388436 12.38716,3.388436 8.48146,0 29.25434,0.327546 56.60731,2.634417 27.25638,2.298735 61.72578,7.488646 71.32413,10.1064 5.44369,1.48464 12.10952,3.366388 17.63587,5.467952 5.52637,2.101564 9.79701,5.233282 9.87349,5.351501 2.08521,3.222562 4.92056,18.844943 5.20991,25.78855 0.29376,7.051226 -0.85622,19.689712 -1.59073,22.168657 -2.26867,7.6568159 -6.11176,14.5609542 -9.24166,19.9382045 -3.9378,6.7651945 -32.635,7.1566835 -32.52448,6.8250505 3.55187,4.576137 8.70136,8.619753 9.87924,13.987221 -5.88386,2.804119 -13.08727,2.187701 -22.23479,2.304487 -9.189,0.117329 -19.70661,0.690789 -28.34172,7.903259 -0.13381,0.11143 -0.26277,0.229262 -0.38602,0.352213 -9.743,9.743001 -11.90339,23.649393 -11.90339,23.649393 -0.0559,0.30508 -0.0872,0.614271 -0.0942,0.924383 l -0.99269,43.937664 c -0.0243,0.27039 -1.65407,18.45903 -4.2668,37.56473 -1.31607,9.624 -2.8839,19.4403 -4.56513,27.06588 -0.84062,3.81277 -2.63895,9.4535 -3.45026,11.74701 0,0 -3.6411,12.36361 -5.41908,15.44319 l 15.354,-8.6095 c 0,0 0.90688,-2.26488 1.98359,-5.30869 1.07674,-3.04385 2.02334,-6.66697 2.92552,-10.75908 1.80437,-8.18417 3.39087,-18.2016 4.73045,-27.99744 2.6792,-19.59171 4.34446,-38.28212 4.34446,-38.28212 0.0111,-0.12829 0.0195,-0.25722 0.0224,-0.38599 L 253.977,66.440313 c 0.096,-0.428664 2.50395,-10.941836 8.43948,-17.046454 5.22018,-4.22441 12.16796,-4.940305 20.78496,-5.050319 8.73345,-0.1115 18.78246,0.574352 28.24181,-3.99296 0.058,-0.02735 0.11545,-0.05629 0.17253,-0.08555 8.17262,-4.280894 17.3548,-12.357687 17.3548,-12.357687 0.22414,-0.191699 0.43358,-0.399867 0.62609,-0.623205 0,0 12.99603,-14.882243 18.7637,-34.3480828 1.93288,-6.5235322 2.92975,-18.9103062 2.55966,-27.7933032 -0.37465,-8.990622 -2.35029,-21.750405 -7.5683,-29.814579 -3.57511,-5.52515 -9.26567,-7.538846 -15.52401,-9.918785 -6.25832,-2.379926 -13.20161,-4.316423 -18.71265,-5.819438 -12.31121,-3.357598 -45.56271,-8.126406 -73.41224,-10.475146 -27.75288,-2.340589 -48.80787,-2.676105 -57.58851,-2.676105 -3.49292,0 -4.60628,-0.531935 -5.78566,-1.3413 -1.17935,-0.809324 -2.60439,-2.495168 -5.0266,-4.917337 -3.42686,-3.426882 -7.7414,-4.888132 -11.77977,-5.603802 -2.01918,-0.35783 -3.98386,-0.52338 -5.8561,-0.51252 z m 1.48863,20.173258 c -0.18961,-0.0011 -0.37682,0.0028 -0.55348,7.37e-4 -2.3476,-0.02365 -1.97634,2.96558 -1.32331,4.138879 0.60846,1.17775 1.44896,2.182143 2.71998,2.862996 3.04127,1.660821 5.67569,-0.573748 3.68672,-3.806784 -0.53301,-1.208546 -1.77301,-1.981148 -3.00745,-2.758047 -0.36564,-0.383658 -0.95363,-0.433914 -1.52246,-0.437753 z m 61.22492,24.687361 c -0.35993,3.62e-4 -0.7245,0.0083 -1.09474,0.02365 -5.92381,0.248929 -11.26758,3.266448 -15.8446,7.479174 -3.08867,2.80252 1.15793,7.416273 4.20645,4.570155 6.85279,-3.625226 15.97911,-5.549136 27.22617,-0.837408 3.62135,2.124497 4.75459,-4.205247 1.07604,-6.229167 -5.84043,-3.320431 -10.16983,-5.012938 -15.56932,-5.00647 z m 106.39531,18.133996 c -2.93987,0.132087 -4.44632,3.956526 -2.61789,6.647506 1.68771,2.923147 6.37509,6.768267 6.37509,6.768267 2.80713,3.131035 7.76194,0.283463 6.96162,-3.043419 -1.08517,-5.030633 -5.24071,-8.134405 -7.5417,-9.849063 -0.58083,-0.44658 -2.44518,-0.556293 -3.17712,-0.523291 z"
       id="path4555"
       inkscape:connector-curvature="0"
       sodipodi:nodetypes="ccccccccccccccccccccccccccccssccccccccccccccccccccscccccsccccccsssssccccccccccccccccccccccccccc" />
  </g>
</svg>
